#!OML:ASF E:\motion texture\Top Level 1\Subject 1\Session 1\male.ASF
:FULLY-SPECIFIED
:DEGREES
443
root -14.9419 18.0418 4.30162 171.367 -74.5933 -163.717
lowerback 0.0873013 -2.66303 2.44264
upperback -1.7215 -3.601 5.11908
thorax -1.63785 -1.86046 3.95903
lowerneck -15.9306 -6.75436 -8.53635
upperneck 9.99508 -8.14549 6.57202
head 6.25004 -3.78253 2.62907
rclavicle 7.83212e-014 5.32743e-014
rhumerus -31.9053 -24.3208 -66.1612
rradius 20.503
rwrist 19.6318
rhand -15.5987 -29.9693
rfingers 7.12502
rthumb 10.5873 -419.683
lclavicle 7.83212e-014 5.32743e-014
lhumerus -26.5436 5.98085 84.0588
lradius 34.3482
lwrist -20.7599
lhand -12.4669 23.369
lfingers 7.12502
lthumb 13.607 52.9043
rfemur -23.1979 3.6588 22.2839
rtibia 19.4181
rfoot -0.846227 -8.24774
rtoes 16.6349
lfemur -8.22569 -1.52981 -13.9884
ltibia 42.6814
lfoot -2.63657 -0.268853
ltoes -22.8761
444
root -15.0634 18.0507 4.2484 170.309 -74.589 -162.701
lowerback 0.118391 -2.57984 2.68441
upperback -1.72144 -3.4885 5.14928
thorax -1.67339 -1.8087 3.85585
lowerneck -15.852 -6.826 -8.61067
upperneck 10.0474 -8.23589 6.57493
head 6.26394 -3.83025 2.63262
rclavicle -7.35503e-015 -1.35174e-014
rhumerus -30.5244 -23.5228 -67.1525
rradius 20.8038
rwrist 19.2719
rhand -15.7471 -29.8572
rfingers 7.12502
rthumb 10.4441 -419.578
lclavicle -7.35503e-015 -1.35174e-014
lhumerus -26.4822 5.2014 84.4776
lradius 35.0608
lwrist -20.4722
lhand -12.4087 23.2164
lfingers 7.12502
lthumb 13.6631 52.7479
rfemur -22.5719 3.6853 22.7249
rtibia 19.3224
rfoot -1.07375 -8.13834
rtoes 16.8687
lfemur -9.06636 -1.29868 -13.5099
ltibia 43.9735
lfoot -2.21223 -0.168624
ltoes -22.7524
445
root -15.1841 18.0593 4.19607 169.252 -74.5764 -161.689
lowerback 0.15218 -2.49382 2.92752
upperback -1.72041 -3.3719 5.17765
thorax -1.70903 -1.75499 3.74994
lowerneck -15.7659 -6.89945 -8.68605
upperneck 10.0928 -8.32945 6.58066
head 6.27491 -3.87953 2.63711
rclavicle 5.3324e-014 1.19271e-014
rhumerus -29.1709 -22.692 -68.091
rradius 21.1283
rwrist 18.8968
rhand -15.9036 -29.7656
rfingers 7.12502
rthumb 10.2931 -419.494
lclavicle 5.3324e-014 1.19271e-014
lhumerus -26.4407 4.43083 84.8902
lradius 35.7853
lwrist -20.2105
lhand -12.3434 23.0486
lfingers 7.12502
lthumb 13.726 52.5759
rfemur -21.9414 3.71165 23.1639
rtibia 19.2246
rfoot -1.31937 -8.03605
rtoes 17.1015
lfemur -9.92852 -1.06179 -13.0345
ltibia 45.2267
lfoot -1.84844 -0.0400641
ltoes -22.6111
446
root -15.3044 18.0674 4.14473 168.214 -74.5603 -160.698
lowerback 0.187827 -2.40537 3.16823
upperback -1.71814 -3.25169 5.20208
thorax -1.74386 -1.69949 3.64113
lowerneck -15.6728 -6.97501 -8.76295
upperneck 10.1333 -8.42668 6.59007
head 6.28374 -3.93056 2.64281
rclavicle 1.49089e-014 2.94201e-014
rhumerus -27.849 -21.829 -68.9751
rradius 21.4791
rwrist 18.4993
rhand -16.0702 -29.6968
rfingers 7.12502
rthumb 10.1325 -419.433
lclavicle 1.49089e-014 2.94201e-014
lhumerus -26.4186 3.671 85.2964
lradius 36.521
lwrist -19.9735
lhand -12.2697 22.8698
lfingers 7.12502
lthumb 13.7971 52.3923
rfemur -21.3043 3.73187 23.5946
rtibia 19.12
rfoot -1.57631 -7.93993
rtoes 17.3416
lfemur -10.8067 -0.824366 -12.5703
ltibia 46.431
lfoot -1.54874 0.117408
ltoes -22.4664
447
root -15.4242 18.0751 4.09437 167.199 -74.541 -159.732
lowerback 0.225778 -2.31476 3.40473
upperback -1.71487 -3.1282 5.22246
thorax -1.77821 -1.64231 3.53035
lowerneck -15.5743 -7.0525 -8.84073
upperneck 10.1701 -8.52724 6.60207
head 6.29097 -3.9832 2.64926
rclavicle -3.77691e-014 9.54166e-015
rhumerus -26.5616 -20.9385 -69.802
rradius 21.8584
rwrist 18.0785
rhand -16.2434 -29.6453
rfingers 7.12502
rthumb 9.96538 -419.389
lclavicle -3.77691e-014 9.54166e-015
lhumerus -26.416 2.92689 85.6952
lradius 37.2656
lwrist -19.7622
lhand -12.189 22.6814
lfingers 7.12502
lthumb 13.8748 52.1986
rfemur -20.6622 3.74785 24.0148
rtibia 19.0082
rfoot -1.84541 -7.85443
rtoes 17.5705
lfemur -11.6977 -0.587492 -12.1194
ltibia 47.5785
lfoot -1.313 0.303194
ltoes -22.32
448
root -15.5435 18.0824 4.04505 166.205 -74.5179 -158.79
lowerback 0.26753 -2.22179 3.63794
upperback -1.71039 -3.00106 5.23916
thorax -1.81272 -1.58328 3.4175
lowerneck -15.4717 -7.13198 -8.91876
upperneck 10.2025 -8.6313 6.61728
head 6.29666 -4.03743 2.65652
rclavicle -2.5842e-014 -4.45278e-014
rhumerus -25.3095 -20.0364 -70.5662
rradius 22.2633
rwrist 17.6454
rhand -16.4197 -29.6041
rfingers 7.12502
rthumb 9.79527 -419.356
lclavicle -2.5842e-014 -4.45278e-014
lhumerus -26.4309 2.2014 86.086
lradius 38.0159
lwrist -19.574
lhand -12.1033 22.4845
lfingers 7.12502
lthumb 13.9574 51.996
rfemur -20.0147 3.76137 24.4256
rtibia 18.8876
rfoot -2.12877 -7.78115
rtoes 17.7654
lfemur -12.5964 -0.351864 -11.6806
ltibia 48.6603
lfoot -1.14136 0.517337
ltoes -22.1648
449
root -15.6622 18.0892 3.99682 165.237 -74.4921 -157.876
lowerback 0.311201 -2.12691 3.86731
upperback -1.70464 -2.87098 5.25189
thorax -1.84619 -1.52274 3.3025
lowerneck -15.366 -7.21322 -8.99695
upperneck 10.2312 -8.73846 6.63518
head 6.30113 -4.09306 2.66443
rclavicle -3.73715e-014 1.27222e-014
rhumerus -24.0935 -19.1258 -71.2685
rradius 22.6948
rwrist 17.2025
rhand -16.6014 -29.5755
rfingers 7.12502
rthumb 9.61999 -419.336
lclavicle -3.73715e-014 1.27222e-014
lhumerus -26.4625 1.50003 86.4681
lradius 38.7695
lwrist -19.4069
lhand -12.0137 22.2766
lfingers 7.12502
lthumb 14.0438 51.7821
rfemur -19.3645 3.77252 24.8251
rtibia 18.7597
rfoot -2.42702 -7.71914
rtoes 17.9136
lfemur -13.4993 -0.119407 -11.2562
ltibia 49.6682
lfoot -1.0342 0.760996
ltoes -22.0085
450
root -15.7806 18.0955 3.94971 164.301 -74.464 -156.993
lowerback 0.353942 -2.03025 4.09259
upperback -1.69806 -2.73831 5.26033
thorax -1.87742 -1.46085 3.18504
lowerneck -15.2573 -7.29629 -9.07571
upperneck 10.2566 -8.84878 6.65605
head 6.30457 -4.15012 2.67313
rclavicle 3.26007e-014 -6.12257e-014
rhumerus -22.9162 -18.2062 -71.91
rradius 23.1561
rwrist 16.7468
rhand -16.7855 -29.564
rfingers 7.12502
rthumb 9.4423 -419.332
lclavicle 3.26007e-014 -6.12257e-014
lhumerus -26.5114 0.826827 86.841
lradius 39.5237
lwrist -19.2634
lhand -11.9177 22.0625
lfingers 7.12502
lthumb 14.1363 51.5616
rfemur -18.7138 3.78138 25.2116
rtibia 18.6247
rfoot -2.73787 -7.66711
rtoes 18.0147
lfemur -14.4036 0.109329 -10.8478
ltibia 50.5943
lfoot -0.991017 1.03358
ltoes -21.8567
451
root -15.8986 18.1014 3.90373 163.389 -74.4335 -156.133
lowerback 0.399323 -1.93273 4.31501
upperback -1.69151 -2.60402 5.26597
thorax -1.90925 -1.39814 3.06619
lowerneck -15.1467 -7.37996 -9.15386
upperneck 10.279 -8.9607 6.6795
head 6.30707 -4.20781 2.68246
rclavicle 3.28492e-014 3.49861e-014
rhumerus -21.7773 -17.2849 -72.4905
rradius 23.6453
rwrist 16.2832
rhand -16.9724 -29.563
rfingers 7.12502
rthumb 9.26194 -419.34
lclavicle 3.28492e-014 3.49861e-014
lhumerus -26.5772 0.18532 87.2036
lradius 40.2766
lwrist -19.1384
lhand -11.8142 21.8451
lfingers 7.12502
lthumb 14.236 51.3372
rfemur -18.0636 3.79078 25.588
rtibia 18.4833
rfoot -3.05519 -7.62767
rtoes 18.0718
lfemur -15.3055 0.333936 -10.4515
ltibia 51.4321
lfoot -1.00876 1.33293
ltoes -21.7001
452
root -16.0162 18.1069 3.85893 162.505 -74.4004 -155.302
lowerback 0.445532 -1.8336 4.5337
upperback -1.68458 -2.46725 5.2686
thorax -1.94021 -1.33416 2.94608
lowerneck -15.0323 -7.46477 -9.23223
upperneck 10.2952 -9.07482 6.70583
head 6.30738 -4.26648 2.69267
rclavicle 4.10987e-014 -2.62396e-014
rhumerus -20.6775 -16.3657 -73.0099
rradius 24.1638
rwrist 15.812
rhand -17.1579 -29.5666
rfingers 7.12502
rthumb 9.08299 -419.351
lclavicle 4.10987e-014 -2.62396e-014
lhumerus -26.6595 -0.423734 87.5579
lradius 41.0263
lwrist -19.0266
lhand -11.711 21.6247
lfingers 7.12502
lthumb 14.3355 51.1098
rfemur -17.4143 3.79934 25.9525
rtibia 18.3351
rfoot -3.37474 -7.59744
rtoes 18.099
lfemur -16.1994 0.553372 -10.0691
ltibia 52.1728
lfoot -1.08704 1.65979
ltoes -21.5452
453
root -16.1335 18.112 3.81528 161.652 -74.3671 -154.497
lowerback 0.491172 -1.73349 4.74847
upperback -1.6783 -2.32889 5.26772
thorax -1.97056 -1.26935 2.82431
lowerneck -14.9218 -7.55042 -9.30969
upperneck 10.3121 -9.19067 6.73525
head 6.30894 -4.32567 2.70342
rclavicle 2.56929e-014 -3.18055e-015
rhumerus -19.6185 -15.4542 -73.4702
rradius 24.7123
rwrist 15.3365
rhand -17.3431 -29.5771
rfingers 7.12502
rthumb 8.90425 -419.369
lclavicle 2.56929e-014 -3.18055e-015
lhumerus -26.7597 -0.997881 87.9023
lradius 41.7724
lwrist -18.9261
lhand -11.6022 21.405
lfingers 7.12502
lthumb 14.4404 50.8826
rfemur -16.7701 3.80487 26.3049
rtibia 18.1823
rfoot -3.69106 -7.57404
rtoes 18.1011
lfemur -17.0847 0.765839 -9.70055
ltibia 52.8104
lfoot -1.21781 2.00992
ltoes -21.3825
